
    <svg width="400" height="400" xmlns="http://www.w3.org/2000/svg">
      <defs>
        
        <filter id="displacementFilter">
          <feTurbulence type="turbulence" baseFrequency="0.01" numOctaves="3" result="turbulence"/>
          <feDisplacementMap in2="turbulence" in="SourceGraphic" scale="25" xChannelSelector="R" yChannelSelector="G"/>
        </filter>
        <filter id="softGlow" x="-50%" y="-50%" width="200%" height="200%">
          <feGaussianBlur in="SourceGraphic" stdDeviation="10" result="blur" />
          <feComposite in="SourceGraphic" in2="blur" operator="over" />
        </filter>
        <filter id="grainEffect">
          <feTurbulence type="fractalNoise" baseFrequency="0.65" numOctaves="3" stitchTiles="stitch"/>
          <feColorMatrix type="matrix" values="0 0 0 0 0, 0 0 0 0 0, 0 0 0 0 0, 0 0 0 0.5 0"/>
          <feComposite operator="in" in2="SourceGraphic"/>
          <feComposite operator="arithmetic" k1="0" k2="1" k3="0" k4="0" in2="SourceGraphic"/> 
        </filter>
        <radialGradient id="surreal-gradient" cx="50%" cy="50%" r="100%" fx="50%" fy="50%">
          <stop offset="0%" stop-color="hsl(272, 100%, 57%)" stop-opacity="0.8"/>
          <stop offset="50%" stop-color="hsl(203, 81%, 41%)" stop-opacity="0.5"/>
          <stop offset="100%" stop-color="hsl(152, 97%, 22%)" stop-opacity="1"/>
        </radialGradient>
      
      </defs>
      <rect width="100%" height="100%" fill="url(#surreal-gradient)" />

            <g transform="translate(177, 116)" filter="url(#softGlow)">
              <ellipse cx="0" cy="0" rx="27" ry="16.2" fill="white" />
              <circle cx="0" cy="0" r="10.8" fill="hsl(32, 100%, 52%)" />
              <circle cx="0" cy="0" r="5.4" fill="black" />
              <circle cx="4.05" cy="-4.05" r="1.35" fill="white" />
            </g>
          

            <g transform="translate(272, 236)" filter="url(#softGlow)">
              <ellipse cx="0" cy="0" rx="17" ry="10.2" fill="white" />
              <circle cx="0" cy="0" r="6.800000000000001" fill="hsl(32, 100%, 52%)" />
              <circle cx="0" cy="0" r="3.4000000000000004" fill="black" />
              <circle cx="2.55" cy="-2.55" r="0.8500000000000001" fill="white" />
            </g>
          

            <g transform="translate(142, 126)" filter="url(#softGlow)">
              <ellipse cx="0" cy="0" rx="12" ry="7.199999999999999" fill="white" />
              <circle cx="0" cy="0" r="4.800000000000001" fill="hsl(32, 100%, 52%)" />
              <circle cx="0" cy="0" r="2.4000000000000004" fill="black" />
              <circle cx="1.7999999999999998" cy="-1.7999999999999998" r="0.6000000000000001" fill="white" />
            </g>
          

            <polygon points="302,229 341,248.5 302,268 263,248.5" 
                    fill="hsl(272, 100%, 57%)" opacity="0.7" filter="url(#displacementFilter)" />
          

            <polygon points="177,212 240,243.5 177,275 114,243.5" 
                    fill="hsl(272, 100%, 57%)" opacity="0.7" filter="url(#displacementFilter)" />
          

          <g transform="translate(154, 217) rotate(15)" filter="url(#displacementFilter)">
            <ellipse cx="0" cy="0" rx="31" ry="46.5" fill="hsl(203, 100%, 61%)" 
                    stroke="black" stroke-width="2" opacity="0.9" />
            <line x1="0" y1="-15.5" x2="0" y2="6.2" stroke="black" stroke-width="2" />
            <line x1="-12.4" y1="0" x2="6.2" y2="0" stroke="black" stroke-width="2" />
          </g>
        

        <g opacity="0.2" filter="url(#grainEffect)">
          <rect width="100%" height="100%" fill="none" stroke="hsl(32, 100%, 52%)" stroke-width="5" />
          <circle cx="200" cy="200" r="150" fill="none" stroke="hsl(272, 100%, 57%)" stroke-width="3" stroke-dasharray="10,10" />
        </g>
      

        <path d="M 0,300 C 100,280 300,320 400,300" stroke="hsl(32, 100%, 52%)" stroke-width="2" fill="none" />
        <path d="M 0,300 C 100,320 300,280 400,300 L 400,400 L 0,400 Z" fill="hsl(32, 100%, 52%)" opacity="0.3" />
      

        <text x="50%" y="95%" font-family="cursive" font-size="14" fill="rgba(255, 255, 255, 0.9)" 
              text-anchor="middle" font-style="italic" filter="url(#softGlow)">
          Sogno Surrealista
        </text>
      
    </svg>
  